<?xml version="1.0" encoding="UTF-8" standalone="no"?>
<svg
   width="32"
   height="48"
   viewBox="0 0 32 48"
   fill="none"
   version="1.1"
   id="svg4"
   sodipodi:docname="logo-pestaña.svg"
   inkscape:version="1.2.1 (9c6d41e410, 2022-07-14)"
   xmlns:inkscape="http://www.inkscape.org/namespaces/inkscape"
   xmlns:sodipodi="http://sodipodi.sourceforge.net/DTD/sodipodi-0.dtd"
   xmlns="http://www.w3.org/2000/svg"
   xmlns:svg="http://www.w3.org/2000/svg">
  <defs
     id="defs8" />
  <sodipodi:namedview
     id="namedview6"
     pagecolor="#505050"
     bordercolor="#eeeeee"
     borderopacity="1"
     inkscape:showpageshadow="0"
     inkscape:pageopacity="0"
     inkscape:pagecheckerboard="0"
     inkscape:deskcolor="#505050"
     showgrid="false"
     inkscape:zoom="17.458333"
     inkscape:cx="15.980907"
     inkscape:cy="24"
     inkscape:window-width="1920"
     inkscape:window-height="1023"
     inkscape:window-x="0"
     inkscape:window-y="33"
     inkscape:window-maximized="1"
     inkscape:current-layer="svg4" />
  <path
     fill-rule="evenodd"
     clip-rule="evenodd"
     d="M23.3958 23.6529C23.3524 23.9311 23.2466 24.1959 23.0863 24.4275C22.926 24.659 22.7154 24.8512 22.4703 24.9898C21.9766 25.3086 21.5447 25.468 21.1077 25.6274C20.177 25.9488 19.1974 26.2702 18.1613 26.643C17.0687 27.0157 16.0891 27.3885 15.215 27.6585C14.1249 28.0313 13.0888 28.3526 12.1041 28.7254C11.3633 29.0425 10.6674 29.4556 10.0345 29.9544C9.44584 30.4877 8.93212 31.0983 8.50734 31.7695C8.07027 32.515 7.79518 33.4766 7.79518 34.5975C7.79518 36.842 8.34022 38.5491 9.43289 39.6161C10.523 40.7396 12.5438 41.2718 15.5389 41.2718C18.5933 41.2718 20.6655 40.6856 21.7607 39.5107C22.8482 38.3357 23.3932 36.6826 23.3932 34.5487V23.6529H23.3958ZM15.5415 0C20.8891 0 24.815 1.01553 27.3217 3.09802C29.831 5.12908 31.0856 7.74119 31.0856 10.8366V37.2148C31.0856 38.2817 30.8696 39.4567 30.4891 40.737C30.1035 42.0225 29.3425 43.1949 28.1418 44.2592C26.9977 45.3313 25.4166 46.2389 23.3984 46.933C21.3802 47.6272 18.7629 48 15.5441 48C12.3304 48 9.70798 47.6272 7.69234 46.933C5.6767 46.2389 4.09298 45.3313 2.9489 44.2592C1.8846 43.3001 1.07834 42.089 0.604178 40.737C0.218532 39.4592 0 38.2843 0 37.2174V33.001C0 30.7565 0.599036 28.674 1.79968 26.8563C3.00032 24.9898 4.68945 23.7095 6.8722 22.9073C7.96229 22.5345 9.21693 22.1618 10.6335 21.681C12.0527 21.1976 13.3588 20.7169 14.6699 20.2927C15.9811 19.8633 17.1252 19.434 18.1048 19.0586C18.6959 18.8221 19.2963 18.6094 19.9044 18.421L20.8866 17.9402C21.2722 17.7268 21.6501 17.4055 22.0332 16.9787C22.4137 16.5545 22.7402 16.0737 23.0153 15.5389C23.306 14.9599 23.4557 14.3203 23.4524 13.6724V11.9627C23.4564 11.3361 23.3249 10.716 23.0667 10.145C22.8508 9.5023 22.4137 8.91612 21.8147 8.38393C21.2156 7.84917 20.3955 7.42239 19.416 7.09845C18.4338 6.78222 17.1278 6.62025 15.6521 6.62025C12.5977 6.62025 10.5795 7.21157 9.48945 8.43535C8.5639 9.50488 8.01885 10.8392 7.91087 12.3329C7.91087 12.6543 7.63835 12.8677 7.30927 12.8677L0.658168 12.9757C0.500177 12.9764 0.348309 12.9146 0.235632 12.8039C0.122956 12.6931 0.0585941 12.5423 0.0565613 12.3844V10.8418C0.0565613 9.3429 0.331655 7.95458 0.930691 6.62025C1.5323 5.28334 2.46042 4.16497 3.71248 3.20086C4.96711 2.24189 6.60482 1.44231 8.56647 0.907552C10.4767 0.26481 12.8214 0 15.5466 0H15.5415Z"
     fill="#0A3871"
     id="path2" />
  <!-- <path -->
     style="fill:#ffffff;stroke-width:0.0572792"
     d="M 13.260143,47.909698 C 10.162442,47.704404 7.7484149,47.102685 5.5468373,45.987084 2.7693111,44.579635 1.083476,42.58805 0.40459836,39.912229 0.08549468,38.65447 0.04589635,38.232742 0.01574417,35.770883 -0.02697186,32.283212 0.09581002,30.902994 0.57638795,29.468565 1.5052311,26.696153 3.297328,24.61759 5.8135698,23.39422 6.257418,23.178426 7.0204588,22.890986 7.9358669,22.594743 10.553048,21.747775 16.077586,19.85331 17.441527,19.335079 c 0.598568,-0.227427 1.412732,-0.524207 1.809251,-0.65951 1.029532,-0.351305 1.87803,-0.800752 2.383974,-1.262783 0.741242,-0.676907 1.387774,-1.668037 1.681326,-2.577464 0.115355,-0.357366 0.132176,-0.547852 0.154743,-1.752215 0.03408,-1.818914 -0.04283,-2.273639 -0.570342,-3.3718616 C 22.704836,9.3039357 22.575461,9.134227 22.088066,8.6455584 20.984389,7.5389957 19.567572,6.93493 17.520809,6.6982889 16.377317,6.5660815 14.02577,6.6085678 13.031026,6.7794072 11.316305,7.0738975 10.148281,7.6213787 9.4300519,8.4672716 8.616826,9.4250474 8.1111391,10.597179 7.9324227,11.938626 7.865052,12.444312 7.8302566,12.558562 7.7056422,12.683256 L 7.5584426,12.830549 5.655116,12.867087 C 4.6082868,12.887182 3.0122962,12.910498 2.1084704,12.9189 0.25829574,12.936098 0.22879429,12.93034 0.11771982,12.530375 -0.00351147,12.093835 0.08573843,9.7705799 0.25801821,8.8782816 0.44139669,7.9284991 0.86896073,6.7025023 1.2444158,6.0498868 2.3628403,4.1058412 4.1256417,2.6457713 6.6120372,1.6040638 7.6153833,1.1836991 9.5759444,0.60303105 10.653938,0.40695595 c 2.579373,-0.46915927 6.663256,-0.49385336 9.622912,-0.058187 2.546265,0.37481454 4.883342,1.21339535 6.407111,2.29897485 2.257905,1.6085992 3.658754,3.689915 4.201254,6.242024 l 0.131491,0.6185854 0.01537,14.1766108 c 0.01715,15.815707 0.04421,14.671784 -0.38685,16.352423 -0.439475,1.713441 -0.989824,2.687607 -2.190466,3.877312 -1.151133,1.140648 -2.460949,1.967444 -4.248894,2.682032 -1.612419,0.644436 -3.23191,1.01306 -5.418278,1.233292 -1.071785,0.10796 -4.380912,0.155659 -5.527446,0.07968 z m 5.010495,-6.809863 c 1.002187,-0.179134 1.599364,-0.361414 2.274674,-0.694311 1.433838,-0.706819 2.336323,-2.060542 2.746093,-4.119128 0.08597,-0.43192 0.09942,-1.110756 0.119077,-6.01432 0.01219,-3.040095 0.0145,-5.772315 0.0051,-6.071599 l -0.01704,-0.544152 -0.109475,0.315035 c -0.160068,0.460625 -0.662094,0.943755 -1.303028,1.253985 -0.513577,0.248586 -2.365493,0.903791 -7.093464,2.50966 -3.033187,1.030231 -3.664345,1.303494 -4.586269,1.985654 -0.7774407,0.575253 -1.6441334,1.624414 -2.0277073,2.454609 -0.3916742,0.847728 -0.4602215,1.239901 -0.45827,2.621868 0.00133,0.944842 0.025407,1.349822 0.1034166,1.7398 0.5427998,2.713512 1.9356956,4.061562 4.6879527,4.537016 0.938902,0.162196 1.396829,0.186795 3.168706,0.170218 1.536359,-0.01437 1.871953,-0.03383 2.490208,-0.144335 z"
     id="path129" />
</svg>
